<mxfile host="app.diagrams.net" agent="Mozilla/5.0 (Windows NT 10.0; Win64; x64) AppleWebKit/537.36 (KHTML, like Gecko) Chrome/131.0.0.0 Safari/537.36" version="26.0.1">
  <diagram name="第 1 页" id="OUeEZu8KfTxYttRnIiOZ">
    <mxGraphModel dx="1323" dy="743" grid="1" gridSize="10" guides="1" tooltips="1" connect="1" arrows="1" fold="1" page="0" pageScale="1" pageWidth="827" pageHeight="1169" math="0" shadow="0">
      <root>
        <mxCell id="0" />
        <mxCell id="1" parent="0" />
        <mxCell id="sK-Rt0_sFjDpiI7IriGA-26" value="" style="edgeStyle=orthogonalEdgeStyle;rounded=0;orthogonalLoop=1;jettySize=auto;html=1;" edge="1" parent="1" source="sK-Rt0_sFjDpiI7IriGA-1" target="sK-Rt0_sFjDpiI7IriGA-25">
          <mxGeometry relative="1" as="geometry" />
        </mxCell>
        <mxCell id="sK-Rt0_sFjDpiI7IriGA-1" value="Start" style="strokeWidth=2;html=1;shape=mxgraph.flowchart.start_1;whiteSpace=wrap;fillColor=#dae8fc;strokeColor=#6c8ebf;" vertex="1" parent="1">
          <mxGeometry x="330" y="210" width="100" height="60" as="geometry" />
        </mxCell>
        <mxCell id="sK-Rt0_sFjDpiI7IriGA-6" value="" style="edgeStyle=orthogonalEdgeStyle;rounded=0;orthogonalLoop=1;jettySize=auto;html=1;" edge="1" parent="1" source="sK-Rt0_sFjDpiI7IriGA-3" target="sK-Rt0_sFjDpiI7IriGA-5">
          <mxGeometry relative="1" as="geometry" />
        </mxCell>
        <mxCell id="sK-Rt0_sFjDpiI7IriGA-3" value="Select a type of workout plan" style="shape=parallelogram;html=1;strokeWidth=2;perimeter=parallelogramPerimeter;whiteSpace=wrap;rounded=1;arcSize=12;size=0.23;fillColor=#d5e8d4;strokeColor=#82b366;" vertex="1" parent="1">
          <mxGeometry x="320" y="450" width="120" height="60" as="geometry" />
        </mxCell>
        <mxCell id="sK-Rt0_sFjDpiI7IriGA-38" style="edgeStyle=orthogonalEdgeStyle;rounded=0;orthogonalLoop=1;jettySize=auto;html=1;entryX=0.5;entryY=0;entryDx=0;entryDy=0;" edge="1" parent="1" source="sK-Rt0_sFjDpiI7IriGA-5" target="sK-Rt0_sFjDpiI7IriGA-10">
          <mxGeometry relative="1" as="geometry" />
        </mxCell>
        <mxCell id="sK-Rt0_sFjDpiI7IriGA-39" style="edgeStyle=orthogonalEdgeStyle;rounded=0;orthogonalLoop=1;jettySize=auto;html=1;entryX=0.5;entryY=0;entryDx=0;entryDy=0;" edge="1" parent="1" source="sK-Rt0_sFjDpiI7IriGA-5" target="sK-Rt0_sFjDpiI7IriGA-11">
          <mxGeometry relative="1" as="geometry" />
        </mxCell>
        <mxCell id="sK-Rt0_sFjDpiI7IriGA-5" value="Is 30 days plan?" style="strokeWidth=2;html=1;shape=mxgraph.flowchart.decision;whiteSpace=wrap;fillColor=#e1d5e7;strokeColor=#9673a6;" vertex="1" parent="1">
          <mxGeometry x="320" y="560" width="120" height="80" as="geometry" />
        </mxCell>
        <mxCell id="sK-Rt0_sFjDpiI7IriGA-41" style="edgeStyle=orthogonalEdgeStyle;rounded=0;orthogonalLoop=1;jettySize=auto;html=1;entryX=0.5;entryY=0;entryDx=0;entryDy=0;" edge="1" parent="1" source="sK-Rt0_sFjDpiI7IriGA-10" target="sK-Rt0_sFjDpiI7IriGA-12">
          <mxGeometry relative="1" as="geometry">
            <Array as="points">
              <mxPoint x="540" y="760" />
              <mxPoint x="380" y="760" />
            </Array>
          </mxGeometry>
        </mxCell>
        <mxCell id="sK-Rt0_sFjDpiI7IriGA-10" value="Print 30 days&amp;nbsp;&lt;div&gt;workout plan&lt;/div&gt;" style="shape=parallelogram;html=1;strokeWidth=2;perimeter=parallelogramPerimeter;whiteSpace=wrap;rounded=1;arcSize=12;size=0.23;fillColor=#d5e8d4;strokeColor=#82b366;" vertex="1" parent="1">
          <mxGeometry x="480" y="650" width="120" height="60" as="geometry" />
        </mxCell>
        <mxCell id="sK-Rt0_sFjDpiI7IriGA-40" style="edgeStyle=orthogonalEdgeStyle;rounded=0;orthogonalLoop=1;jettySize=auto;html=1;entryX=0.5;entryY=0;entryDx=0;entryDy=0;" edge="1" parent="1" source="sK-Rt0_sFjDpiI7IriGA-11" target="sK-Rt0_sFjDpiI7IriGA-12">
          <mxGeometry relative="1" as="geometry">
            <Array as="points">
              <mxPoint x="220" y="760" />
              <mxPoint x="380" y="760" />
            </Array>
          </mxGeometry>
        </mxCell>
        <mxCell id="sK-Rt0_sFjDpiI7IriGA-11" value="Print 4 weeks&amp;nbsp;&lt;div&gt;workout plan&lt;/div&gt;" style="shape=parallelogram;html=1;strokeWidth=2;perimeter=parallelogramPerimeter;whiteSpace=wrap;rounded=1;arcSize=12;size=0.23;fillColor=#d5e8d4;strokeColor=#82b366;" vertex="1" parent="1">
          <mxGeometry x="160" y="650" width="120" height="60" as="geometry" />
        </mxCell>
        <mxCell id="sK-Rt0_sFjDpiI7IriGA-58" value="" style="edgeStyle=orthogonalEdgeStyle;rounded=0;orthogonalLoop=1;jettySize=auto;html=1;" edge="1" parent="1" source="sK-Rt0_sFjDpiI7IriGA-12" target="sK-Rt0_sFjDpiI7IriGA-29">
          <mxGeometry relative="1" as="geometry" />
        </mxCell>
        <mxCell id="sK-Rt0_sFjDpiI7IriGA-12" value="Select a day to edit or create an activity" style="rounded=1;whiteSpace=wrap;html=1;absoluteArcSize=1;arcSize=14;strokeWidth=2;fillColor=#f8cecc;strokeColor=#b85450;" vertex="1" parent="1">
          <mxGeometry x="320" y="810" width="120" height="60" as="geometry" />
        </mxCell>
        <mxCell id="sK-Rt0_sFjDpiI7IriGA-27" value="" style="edgeStyle=orthogonalEdgeStyle;rounded=0;orthogonalLoop=1;jettySize=auto;html=1;" edge="1" parent="1" source="sK-Rt0_sFjDpiI7IriGA-25" target="sK-Rt0_sFjDpiI7IriGA-3">
          <mxGeometry relative="1" as="geometry" />
        </mxCell>
        <mxCell id="sK-Rt0_sFjDpiI7IriGA-25" value="Define workout&amp;nbsp;&lt;div&gt;plan name&lt;/div&gt;" style="shape=parallelogram;html=1;strokeWidth=2;perimeter=parallelogramPerimeter;whiteSpace=wrap;rounded=1;arcSize=12;size=0.23;fillColor=#d5e8d4;strokeColor=#82b366;" vertex="1" parent="1">
          <mxGeometry x="320" y="330" width="120" height="60" as="geometry" />
        </mxCell>
        <mxCell id="sK-Rt0_sFjDpiI7IriGA-50" value="" style="edgeStyle=orthogonalEdgeStyle;rounded=0;orthogonalLoop=1;jettySize=auto;html=1;" edge="1" parent="1" source="sK-Rt0_sFjDpiI7IriGA-29" target="sK-Rt0_sFjDpiI7IriGA-31">
          <mxGeometry relative="1" as="geometry" />
        </mxCell>
        <mxCell id="sK-Rt0_sFjDpiI7IriGA-29" value="Select focus area" style="shape=parallelogram;html=1;strokeWidth=2;perimeter=parallelogramPerimeter;whiteSpace=wrap;rounded=1;arcSize=12;size=0.23;fillColor=#d5e8d4;strokeColor=#82b366;" vertex="1" parent="1">
          <mxGeometry x="320" y="930" width="120" height="60" as="geometry" />
        </mxCell>
        <mxCell id="sK-Rt0_sFjDpiI7IriGA-51" value="" style="edgeStyle=orthogonalEdgeStyle;rounded=0;orthogonalLoop=1;jettySize=auto;html=1;" edge="1" parent="1" source="sK-Rt0_sFjDpiI7IriGA-31" target="sK-Rt0_sFjDpiI7IriGA-33">
          <mxGeometry relative="1" as="geometry" />
        </mxCell>
        <mxCell id="sK-Rt0_sFjDpiI7IriGA-31" value="Add / Delete /&lt;div&gt;&amp;nbsp;Replace exercises&lt;/div&gt;" style="shape=parallelogram;html=1;strokeWidth=2;perimeter=parallelogramPerimeter;whiteSpace=wrap;rounded=1;arcSize=12;size=0.23;fillColor=#d5e8d4;strokeColor=#82b366;" vertex="1" parent="1">
          <mxGeometry x="310" y="1050" width="140" height="60" as="geometry" />
        </mxCell>
        <mxCell id="sK-Rt0_sFjDpiI7IriGA-52" style="edgeStyle=orthogonalEdgeStyle;rounded=0;orthogonalLoop=1;jettySize=auto;html=1;entryX=0.5;entryY=0;entryDx=0;entryDy=0;" edge="1" parent="1" source="sK-Rt0_sFjDpiI7IriGA-33" target="sK-Rt0_sFjDpiI7IriGA-34">
          <mxGeometry relative="1" as="geometry" />
        </mxCell>
        <mxCell id="sK-Rt0_sFjDpiI7IriGA-33" value="Does these added exercises&amp;nbsp;&lt;div&gt;contain necessary equipments&amp;nbsp;&lt;div&gt;which not in the activity?&lt;/div&gt;&lt;/div&gt;" style="strokeWidth=2;html=1;shape=mxgraph.flowchart.decision;whiteSpace=wrap;fillColor=#e1d5e7;strokeColor=#9673a6;" vertex="1" parent="1">
          <mxGeometry x="280" y="1160" width="200" height="120" as="geometry" />
        </mxCell>
        <mxCell id="sK-Rt0_sFjDpiI7IriGA-34" value="Add equipment requirement" style="rounded=1;whiteSpace=wrap;html=1;absoluteArcSize=1;arcSize=14;strokeWidth=2;fillColor=#f8cecc;strokeColor=#b85450;" vertex="1" parent="1">
          <mxGeometry x="120" y="1250" width="120" height="60" as="geometry" />
        </mxCell>
        <mxCell id="sK-Rt0_sFjDpiI7IriGA-55" value="" style="edgeStyle=orthogonalEdgeStyle;rounded=0;orthogonalLoop=1;jettySize=auto;html=1;" edge="1" parent="1" source="sK-Rt0_sFjDpiI7IriGA-36" target="sK-Rt0_sFjDpiI7IriGA-37">
          <mxGeometry relative="1" as="geometry" />
        </mxCell>
        <mxCell id="sK-Rt0_sFjDpiI7IriGA-61" style="edgeStyle=orthogonalEdgeStyle;rounded=0;orthogonalLoop=1;jettySize=auto;html=1;entryX=0.5;entryY=0;entryDx=0;entryDy=0;exitX=1;exitY=0.5;exitDx=0;exitDy=0;exitPerimeter=0;" edge="1" parent="1" source="sK-Rt0_sFjDpiI7IriGA-36" target="sK-Rt0_sFjDpiI7IriGA-29">
          <mxGeometry relative="1" as="geometry">
            <Array as="points">
              <mxPoint x="520" y="1440" />
              <mxPoint x="520" y="900" />
              <mxPoint x="380" y="900" />
            </Array>
          </mxGeometry>
        </mxCell>
        <mxCell id="sK-Rt0_sFjDpiI7IriGA-36" value="Does the activity&lt;div&gt;&amp;nbsp;contains exercises?&lt;/div&gt;" style="strokeWidth=2;html=1;shape=mxgraph.flowchart.decision;whiteSpace=wrap;fillColor=#e1d5e7;strokeColor=#9673a6;" vertex="1" parent="1">
          <mxGeometry x="300" y="1400" width="160" height="80" as="geometry" />
        </mxCell>
        <mxCell id="sK-Rt0_sFjDpiI7IriGA-64" value="" style="edgeStyle=orthogonalEdgeStyle;rounded=0;orthogonalLoop=1;jettySize=auto;html=1;" edge="1" parent="1" source="sK-Rt0_sFjDpiI7IriGA-37" target="sK-Rt0_sFjDpiI7IriGA-63">
          <mxGeometry relative="1" as="geometry" />
        </mxCell>
        <mxCell id="sK-Rt0_sFjDpiI7IriGA-37" value="Save and add the activity to the selected day" style="rounded=1;whiteSpace=wrap;html=1;absoluteArcSize=1;arcSize=14;strokeWidth=2;fillColor=#f8cecc;strokeColor=#b85450;" vertex="1" parent="1">
          <mxGeometry x="320" y="1530" width="120" height="60" as="geometry" />
        </mxCell>
        <mxCell id="sK-Rt0_sFjDpiI7IriGA-43" value="Yes" style="text;html=1;align=center;verticalAlign=middle;resizable=0;points=[];autosize=1;strokeColor=none;fillColor=none;" vertex="1" parent="1">
          <mxGeometry x="430" y="608" width="40" height="30" as="geometry" />
        </mxCell>
        <mxCell id="sK-Rt0_sFjDpiI7IriGA-53" style="edgeStyle=orthogonalEdgeStyle;rounded=0;orthogonalLoop=1;jettySize=auto;html=1;entryX=0.5;entryY=0;entryDx=0;entryDy=0;entryPerimeter=0;" edge="1" parent="1" source="sK-Rt0_sFjDpiI7IriGA-34" target="sK-Rt0_sFjDpiI7IriGA-36">
          <mxGeometry relative="1" as="geometry">
            <Array as="points">
              <mxPoint x="180" y="1360" />
              <mxPoint x="380" y="1360" />
            </Array>
          </mxGeometry>
        </mxCell>
        <mxCell id="sK-Rt0_sFjDpiI7IriGA-54" style="edgeStyle=orthogonalEdgeStyle;rounded=0;orthogonalLoop=1;jettySize=auto;html=1;entryX=0.5;entryY=0;entryDx=0;entryDy=0;entryPerimeter=0;" edge="1" parent="1" source="sK-Rt0_sFjDpiI7IriGA-33" target="sK-Rt0_sFjDpiI7IriGA-36">
          <mxGeometry relative="1" as="geometry" />
        </mxCell>
        <mxCell id="sK-Rt0_sFjDpiI7IriGA-60" value="Yes" style="text;html=1;align=center;verticalAlign=middle;resizable=0;points=[];autosize=1;strokeColor=none;fillColor=none;" vertex="1" parent="1">
          <mxGeometry x="240" y="1220" width="40" height="30" as="geometry" />
        </mxCell>
        <mxCell id="sK-Rt0_sFjDpiI7IriGA-62" value="Yes" style="text;html=1;align=center;verticalAlign=middle;resizable=0;points=[];autosize=1;strokeColor=none;fillColor=none;" vertex="1" parent="1">
          <mxGeometry x="380" y="1480" width="40" height="30" as="geometry" />
        </mxCell>
        <mxCell id="sK-Rt0_sFjDpiI7IriGA-65" style="edgeStyle=orthogonalEdgeStyle;rounded=0;orthogonalLoop=1;jettySize=auto;html=1;exitX=1;exitY=0.5;exitDx=0;exitDy=0;exitPerimeter=0;entryX=0.5;entryY=0;entryDx=0;entryDy=0;" edge="1" parent="1" source="sK-Rt0_sFjDpiI7IriGA-63" target="sK-Rt0_sFjDpiI7IriGA-12">
          <mxGeometry relative="1" as="geometry">
            <Array as="points">
              <mxPoint x="570" y="1680" />
              <mxPoint x="570" y="760" />
              <mxPoint x="380" y="760" />
            </Array>
          </mxGeometry>
        </mxCell>
        <mxCell id="sK-Rt0_sFjDpiI7IriGA-67" value="" style="edgeStyle=orthogonalEdgeStyle;rounded=0;orthogonalLoop=1;jettySize=auto;html=1;" edge="1" parent="1" source="sK-Rt0_sFjDpiI7IriGA-63" target="sK-Rt0_sFjDpiI7IriGA-66">
          <mxGeometry relative="1" as="geometry" />
        </mxCell>
        <mxCell id="sK-Rt0_sFjDpiI7IriGA-63" value="Does all activity added&lt;div&gt;&amp;nbsp;into the workout plan?&lt;/div&gt;" style="strokeWidth=2;html=1;shape=mxgraph.flowchart.decision;whiteSpace=wrap;fillColor=#e1d5e7;strokeColor=#9673a6;" vertex="1" parent="1">
          <mxGeometry x="300" y="1640" width="160" height="80" as="geometry" />
        </mxCell>
        <mxCell id="sK-Rt0_sFjDpiI7IriGA-70" value="" style="edgeStyle=orthogonalEdgeStyle;rounded=0;orthogonalLoop=1;jettySize=auto;html=1;" edge="1" parent="1" source="sK-Rt0_sFjDpiI7IriGA-66" target="sK-Rt0_sFjDpiI7IriGA-69">
          <mxGeometry relative="1" as="geometry" />
        </mxCell>
        <mxCell id="sK-Rt0_sFjDpiI7IriGA-66" value="Create workout plan" style="rounded=1;whiteSpace=wrap;html=1;absoluteArcSize=1;arcSize=14;strokeWidth=2;fillColor=#f8cecc;strokeColor=#b85450;" vertex="1" parent="1">
          <mxGeometry x="320" y="1770" width="120" height="60" as="geometry" />
        </mxCell>
        <mxCell id="sK-Rt0_sFjDpiI7IriGA-68" value="Yes" style="text;html=1;align=center;verticalAlign=middle;resizable=0;points=[];autosize=1;strokeColor=none;fillColor=none;" vertex="1" parent="1">
          <mxGeometry x="380" y="1720" width="40" height="30" as="geometry" />
        </mxCell>
        <mxCell id="sK-Rt0_sFjDpiI7IriGA-69" value="End" style="strokeWidth=2;html=1;shape=mxgraph.flowchart.start_1;whiteSpace=wrap;fillColor=#dae8fc;strokeColor=#6c8ebf;" vertex="1" parent="1">
          <mxGeometry x="330" y="1890" width="100" height="60" as="geometry" />
        </mxCell>
      </root>
    </mxGraphModel>
  </diagram>
</mxfile>
